<?xml version="1.0" standalone="no"?>
<!DOCTYPE svg PUBLIC "-//W3C//DTD SVG 20010904//EN"
 "http://www.w3.org/TR/2001/REC-SVG-20010904/DTD/svg10.dtd">
<svg version="1.0" xmlns="http://www.w3.org/2000/svg"
 width="180.000000pt" height="180.000000pt" viewBox="0 0 180.000000 180.000000"
 preserveAspectRatio="xMidYMid meet">
<metadata>
Created by potrace 1.11, written by Peter Selinger 2001-2013
</metadata>
<g transform="translate(0.000000,180.000000) scale(0.100000,-0.100000)"
fill="#000000" stroke="none">
<path d="M0 900 l0 -901 142 3 142 3 101 250 c82 201 105 251 122 253 17 3 33
-29 124 -250 l104 -253 532 -3 533 -2 0 900 0 900 -355 0 -355 0 9 -22 c5 -13
50 -124 101 -248 51 -124 95 -231 97 -237 4 -9 -7 -13 -35 -13 l-40 0 -28 70
-27 70 -107 0 -107 0 -27 -70 c-27 -68 -29 -70 -62 -70 -19 0 -34 4 -34 8 0 5
42 113 94 240 52 127 97 240 101 251 6 21 4 21 -214 21 l-221 0 0 -202 c0
-220 -6 -262 -46 -299 -21 -20 -35 -24 -85 -23 -32 0 -61 3 -64 6 -3 3 -3 18
1 34 5 27 8 29 43 26 69 -7 71 0 71 244 l0 214 -255 0 -255 0 0 -900z m616
225 c30 -19 60 -49 79 -79 28 -46 30 -55 30 -150 0 -92 -2 -105 -28 -148 -56
-96 -128 -128 -288 -128 l-109 0 0 271 0 271 133 -4 c128 -3 136 -4 183 -33z
m552 8 c3 -20 -1 -23 -27 -23 l-31 0 0 -220 0 -220 30 0 c23 0 30 -4 30 -20 0
-19 -7 -20 -100 -20 -93 0 -100 1 -100 20 0 16 7 20 30 20 l30 0 0 220 0 220
-30 0 c-25 0 -30 4 -30 25 l0 26 98 -3 c92 -3 97 -4 100 -25z"/>
<path d="M380 896 l0 -204 30 -7 c16 -3 49 -3 73 0 109 17 167 88 167 204 -1
141 -70 209 -212 211 l-58 0 0 -204z"/>
<path d="M1046 1665 c-4 -19 -17 -58 -30 -87 -46 -104 -49 -98 43 -98 45 0 81
2 81 4 0 2 -16 45 -35 95 -19 49 -35 97 -35 106 0 29 -18 15 -24 -20z"/>
<path d="M496 375 c-3 -17 -20 -67 -38 -113 -17 -45 -29 -85 -26 -88 3 -3 39
-4 80 -2 l75 3 -35 95 c-19 52 -38 104 -42 115 -6 17 -8 16 -14 -10z"/>
<path d="M386 77 c-35 -84 -45 -77 118 -77 82 0 146 4 146 9 0 5 -9 30 -20 55
l-19 46 -106 0 -105 0 -14 -33z"/>
</g>
</svg>
